<svg width="18" height="19" viewBox="0 0 18 19" fill="none" xmlns="http://www.w3.org/2000/svg">
  <!-- 
    в Figma перед экспортом, фигурам добален внутренний контур 0.2 c полу-прозрачным черным, иначе иконка сливается на светлых карточках с фоном
  -->
  <path d="M2.45787 17.86C2.51882 18.52 3.06735 19 3.73778 19H14.2615C14.9319 19 15.4804 18.5 15.5414 17.86L16.7197 5.69995H1.27954L2.45787 17.86Z" fill="white"/>
  <path d="M2.55745 17.8508L2.5574 17.8503L1.3897 5.79995H16.6096L15.4419 17.8503L15.4418 17.8505C15.3859 18.438 14.8816 18.9 14.2615 18.9H3.73778C3.11641 18.9 2.61341 18.4568 2.55745 17.8508Z" stroke="black" stroke-opacity="0.5" stroke-width="0.2"/>
  <path d="M16.7201 1.9H11.5801V1.26C11.5801 0.560001 11.0113 0 10.3002 0H7.72009C7.00903 0 6.44018 0.560001 6.44018 1.26V1.9H1.27991C0.568849 1.9 0 2.46 0 3.16C0 3.86001 0.568849 4.42001 1.27991 4.42001H16.7201C17.4312 4.42001 18 3.86001 18 3.16C18 2.46 17.4312 1.9 16.7201 1.9Z" fill="white"/>
  <path d="M11.4801 1.9V2H11.5801H16.7201C17.3774 2 17.9 2.5167 17.9 3.16C17.9 3.8033 17.3774 4.32001 16.7201 4.32001H1.27991C0.622594 4.32001 0.1 3.8033 0.1 3.16C0.1 2.5167 0.622594 2 1.27991 2H6.44018H6.54018V1.9V1.26C6.54018 0.616701 7.06277 0.1 7.72009 0.1H10.3002C10.9575 0.1 11.4801 0.616701 11.4801 1.26V1.9Z" stroke="black" stroke-opacity="0.5" stroke-width="0.2"/>
</svg>
